 <svg version="1.0" xmlns="http://www.w3.org/2000/svg" width="700.000000pt" height="700.000000pt" class="pokemonball" viewBox="0 0 700.000000 700.000000" preserveAspectRatio="xMidYMid meet">
<metadata>
Created by potrace 1.12, written by Peter Selinger 2001-2015
</metadata>
<g transform="translate(0.000000,700.000000) scale(0.100000,-0.100000)" fill="#666666" stroke="none">
<path d="M3220 6280 c-41 -4 -100 -15 -130 -24 -30 -9 -113 -25 -185 -35 -78
-12 -152 -30 -185 -44 -30 -14 -82 -30 -115 -37 -33 -7 -80 -23 -105 -36 -25
-13 -72 -33 -104 -44 -33 -11 -67 -27 -76 -35 -9 -8 -44 -26 -78 -39 -33 -13
-76 -35 -94 -49 -18 -14 -43 -28 -55 -31 -13 -4 -41 -23 -64 -42 -22 -19 -47
-34 -54 -34 -7 0 -49 -28 -94 -62 -46 -35 -97 -73 -114 -86 -49 -35 -175 -150
-237 -215 -30 -32 -88 -92 -127 -134 -40 -42 -73 -80 -73 -85 0 -5 -13 -23
-30 -41 -44 -48 -115 -147 -139 -194 -11 -23 -25 -45 -31 -48 -6 -4 -22 -30
-36 -58 -15 -29 -34 -61 -44 -72 -10 -11 -23 -38 -30 -60 -7 -22 -25 -60 -40
-85 -16 -25 -35 -68 -43 -97 -9 -29 -27 -71 -40 -95 -14 -24 -30 -69 -37 -101
-6 -32 -23 -83 -36 -113 -14 -33 -34 -116 -49 -211 -14 -86 -33 -181 -42 -212
-26 -85 -26 -625 0 -726 23 -87 33 -140 52 -266 8 -54 24 -117 35 -139 11 -22
28 -73 36 -113 9 -39 28 -92 41 -116 14 -24 31 -66 39 -94 7 -27 24 -66 38
-86 14 -20 34 -61 46 -93 11 -31 28 -62 36 -69 9 -7 27 -36 40 -64 13 -27 34
-64 47 -81 12 -18 30 -45 40 -60 55 -90 91 -136 225 -289 108 -124 278 -288
361 -348 16 -12 63 -48 104 -79 41 -31 93 -66 115 -77 22 -11 44 -25 47 -31 4
-6 30 -22 58 -37 29 -14 63 -34 76 -44 13 -11 46 -26 72 -33 27 -8 64 -26 81
-40 18 -13 53 -29 78 -36 25 -6 63 -22 86 -35 22 -13 76 -33 120 -44 44 -11
102 -30 129 -42 27 -12 105 -30 174 -40 69 -11 149 -26 177 -34 97 -28 250
-38 494 -32 204 5 247 9 330 30 53 14 139 30 190 37 53 7 126 25 165 40 39 15
95 33 125 39 30 7 80 25 110 41 31 15 73 31 93 35 21 4 54 19 75 33 20 14 63
35 94 48 31 12 72 33 90 46 18 14 47 31 65 37 18 7 38 20 44 28 7 8 31 24 53
35 42 21 109 69 174 124 20 17 44 35 54 40 59 32 398 372 433 433 6 10 23 34
38 52 58 70 106 137 126 177 11 22 26 44 32 48 6 3 22 30 34 58 13 29 30 58
38 65 9 7 28 43 42 81 14 38 33 74 41 81 8 6 21 37 30 68 9 31 29 81 45 111
16 30 33 80 40 110 6 30 24 87 39 125 16 40 33 111 40 165 6 52 23 138 37 190
45 171 44 666 -2 823 -8 29 -24 112 -35 185 -11 75 -28 149 -39 170 -11 21
-29 76 -41 122 -12 46 -32 102 -45 124 -13 23 -29 61 -35 86 -6 25 -24 65 -40
90 -15 25 -33 62 -39 82 -7 20 -21 47 -31 60 -10 14 -31 50 -45 81 -15 31 -31
57 -36 57 -5 0 -18 19 -30 43 -22 43 -89 139 -134 192 -126 149 -171 199 -227
255 -77 78 -209 197 -240 218 -13 8 -28 21 -34 29 -13 15 -114 85 -179 123
-24 14 -51 33 -62 42 -10 9 -39 26 -64 36 -26 11 -50 26 -54 32 -4 7 -40 27
-80 45 -40 19 -76 38 -79 44 -4 6 -39 20 -79 32 -40 11 -86 30 -103 40 -17 10
-67 28 -111 39 -44 11 -101 29 -127 40 -25 12 -110 32 -189 45 -78 13 -171 31
-207 40 -74 19 -518 29 -650 15z m468 -2094 c164 -61 214 -92 310 -188 97 -96
122 -137 189 -313 22 -56 22 -313 0 -370 -39 -105 -82 -193 -111 -228 -51 -63
-111 -123 -142 -143 -16 -10 -35 -26 -42 -36 -6 -9 -29 -22 -50 -28 -20 -7
-64 -26 -97 -42 -78 -39 -215 -55 -342 -40 -82 10 -128 25 -258 88 -44 21
-107 75 -160 135 -25 30 -59 69 -75 87 -16 18 -36 55 -46 84 -9 28 -25 66 -35
83 -40 67 -48 322 -14 415 34 92 81 188 109 223 86 106 200 202 260 218 22 6
60 22 83 36 26 15 69 28 110 33 88 11 265 3 311 -14z m-1370 -693 c15 -14 22
-40 30 -115 6 -56 19 -117 32 -145 12 -26 28 -79 36 -116 8 -39 25 -82 39
-101 14 -18 30 -48 36 -67 23 -67 162 -239 255 -317 123 -101 153 -123 196
-138 23 -8 56 -26 74 -39 19 -15 62 -31 103 -40 39 -8 98 -26 132 -40 112 -48
398 -45 514 5 27 12 81 28 119 36 40 8 80 23 92 35 12 11 45 29 75 40 29 11
68 32 86 47 17 15 58 47 90 72 72 57 106 91 163 163 25 32 57 73 73 91 15 19
34 52 42 75 8 23 25 56 39 74 13 17 33 68 44 112 11 44 29 105 40 135 11 30
23 90 27 133 11 129 -48 118 601 115 642 -3 584 8 584 -112 -1 -121 -19 -267
-45 -356 -13 -47 -29 -116 -35 -155 -6 -38 -23 -92 -37 -120 -14 -27 -32 -77
-40 -110 -8 -33 -24 -76 -37 -95 -12 -19 -31 -57 -41 -85 -10 -27 -27 -61 -37
-74 -10 -14 -27 -44 -38 -68 -11 -24 -29 -56 -40 -71 -12 -15 -35 -47 -51 -72
-92 -141 -130 -187 -287 -343 -154 -154 -201 -195 -259 -227 -24 -13 -43 -27
-43 -31 0 -5 -21 -20 -47 -35 -27 -15 -57 -35 -68 -45 -11 -10 -41 -27 -66
-38 -25 -11 -56 -29 -70 -39 -13 -10 -44 -26 -69 -36 -25 -10 -64 -28 -87 -42
-23 -13 -68 -30 -100 -38 -32 -7 -80 -25 -108 -40 -27 -14 -81 -30 -120 -36
-38 -6 -108 -22 -155 -35 -108 -32 -239 -44 -456 -45 -216 0 -357 14 -459 45
-44 13 -114 29 -155 35 -41 6 -102 23 -135 39 -33 16 -84 34 -112 41 -29 6
-64 21 -77 31 -14 11 -51 29 -83 40 -31 10 -66 28 -78 38 -11 11 -42 29 -70
41 -27 12 -58 29 -68 38 -11 9 -38 28 -62 42 -165 97 -515 426 -575 540 -7 14
-28 42 -46 63 -19 20 -34 44 -34 52 0 8 -13 29 -29 47 -15 18 -39 53 -51 78
-13 24 -33 60 -45 80 -13 19 -29 53 -36 75 -6 22 -22 56 -35 75 -12 19 -30 63
-38 97 -9 34 -27 83 -41 110 -13 26 -29 80 -35 118 -6 39 -22 108 -35 155 -39
135 -59 408 -32 442 6 9 19 18 27 21 8 3 259 6 556 6 502 1 543 0 562 -16z"></path>
<path d="M3425 3711 c-26 -11 -103 -87 -126 -126 -23 -36 -25 -124 -5 -163 17
-32 108 -124 133 -134 10 -3 42 -7 72 -7 68 -1 121 28 177 96 38 46 39 50 39
123 0 71 -2 78 -34 118 -57 70 -114 102 -180 101 -31 0 -65 -4 -76 -8z"></path>
</g>
</svg>